<svg xmlns="http://www.w3.org/2000/svg" xmlns:xlink="http://www.w3.org/1999/xlink" preserveAspectRatio="xMidYMid" width="21" height="22" viewBox="0 0 21 22">
  <defs>
    <style>
      .cls-1 {
        fill: #5a477d;
        fill-rule: evenodd;
      }
    </style>
  </defs>
  <path d="M20.625,22.000 L0.375,22.000 C0.168,22.000 -0.000,21.836 -0.000,21.633 L-0.000,5.867 L-0.000,1.833 C-0.000,1.630 0.168,1.467 0.375,1.467 L3.000,1.467 L3.000,0.367 C3.000,0.164 3.168,-0.000 3.375,-0.000 L6.000,-0.000 C6.207,-0.000 6.375,0.164 6.375,0.367 L6.375,1.467 L14.625,1.467 L14.625,0.367 C14.625,0.164 14.793,-0.000 15.000,-0.000 L17.625,-0.000 C17.832,-0.000 18.000,0.164 18.000,0.367 L18.000,1.467 L20.625,1.467 C20.832,1.467 21.000,1.630 21.000,1.833 L21.000,5.867 L21.000,21.633 C21.000,21.836 20.832,22.000 20.625,22.000 ZM5.625,1.833 L5.625,0.733 L3.750,0.733 L3.750,1.833 L3.750,2.933 L5.625,2.933 L5.625,1.833 ZM17.250,1.833 L17.250,0.733 L15.375,0.733 L15.375,1.833 L15.375,2.933 L17.250,2.933 L17.250,1.833 ZM20.250,2.200 L18.000,2.200 L18.000,3.300 C18.000,3.503 17.832,3.667 17.625,3.667 L15.000,3.667 C14.793,3.667 14.625,3.503 14.625,3.300 L14.625,2.200 L6.375,2.200 L6.375,3.300 C6.375,3.503 6.207,3.667 6.000,3.667 L3.375,3.667 C3.168,3.667 3.000,3.503 3.000,3.300 L3.000,2.200 L0.750,2.200 L0.750,5.500 L20.250,5.500 L20.250,2.200 ZM20.250,6.233 L0.750,6.233 L0.750,21.267 L20.250,21.267 L20.250,6.233 ZM7.500,8.433 L10.125,8.433 L10.875,8.433 L13.500,8.433 L14.250,8.433 L17.625,8.433 L17.625,11.733 L17.625,12.466 L17.625,15.033 L17.625,15.767 L17.625,19.067 L14.250,19.067 L13.500,19.067 L10.875,19.067 L10.125,19.067 L7.500,19.067 L6.750,19.067 L3.375,19.067 L3.375,15.767 L3.375,15.033 L3.375,12.466 L3.375,11.733 L3.375,8.433 L6.750,8.433 L7.500,8.433 ZM14.250,18.333 L16.875,18.333 L16.875,15.767 L14.250,15.767 L14.250,18.333 ZM14.250,15.033 L16.875,15.033 L16.875,12.466 L14.250,12.466 L14.250,15.033 ZM14.250,11.733 L16.875,11.733 L16.875,9.167 L14.250,9.167 L14.250,11.733 ZM10.875,18.333 L13.500,18.333 L13.500,15.767 L10.875,15.767 L10.875,18.333 ZM10.875,15.033 L13.500,15.033 L13.500,12.466 L10.875,12.466 L10.875,15.033 ZM10.875,11.733 L13.500,11.733 L13.500,9.167 L10.875,9.167 L10.875,11.733 ZM7.500,18.333 L10.125,18.333 L10.125,15.767 L7.500,15.767 L7.500,18.333 ZM7.500,15.033 L10.125,15.033 L10.125,12.466 L7.500,12.466 L7.500,15.033 ZM7.500,11.733 L10.125,11.733 L10.125,9.167 L7.500,9.167 L7.500,11.733 ZM4.125,18.333 L6.750,18.333 L6.750,15.767 L4.125,15.767 L4.125,18.333 ZM4.125,15.033 L6.750,15.033 L6.750,12.466 L4.125,12.466 L4.125,15.033 ZM4.125,11.733 L6.750,11.733 L6.750,9.167 L4.125,9.167 L4.125,11.733 Z" class="cls-1"/>
</svg>
