<svg xmlns="http://www.w3.org/2000/svg" xmlns:xlink="http://www.w3.org/1999/xlink" preserveAspectRatio="xMidYMid" width="22" height="19" viewBox="0 0 22 19">
  <defs>
    <style>
      .cls-1 {
        fill: #5a477d;
        fill-rule: evenodd;
      }
    </style>
  </defs>
  <path d="M21.888,8.278 C21.776,8.426 21.603,8.505 21.427,8.505 C21.310,8.505 21.191,8.470 21.089,8.397 L10.999,1.239 L0.909,8.397 C0.654,8.578 0.296,8.525 0.110,8.278 C-0.077,8.031 -0.021,7.685 0.233,7.504 L10.662,0.106 C10.863,-0.037 11.136,-0.037 11.337,0.106 L21.765,7.504 C22.020,7.685 22.075,8.031 21.888,8.278 ZM2.997,8.523 C3.312,8.523 3.568,8.771 3.568,9.077 L3.568,17.892 L8.141,17.892 L8.141,13.080 C8.141,11.553 9.423,10.311 10.999,10.311 C12.575,10.311 13.857,11.553 13.857,13.080 L13.857,17.892 L18.430,17.892 L18.430,9.077 C18.430,8.771 18.686,8.523 19.002,8.523 C19.317,8.523 19.573,8.771 19.573,9.077 L19.573,18.446 C19.573,18.752 19.317,19.000 19.002,19.000 L13.286,19.000 C12.985,19.000 12.739,18.775 12.716,18.489 C12.715,18.476 12.714,18.462 12.714,18.446 L12.714,13.080 C12.714,12.164 11.945,11.418 10.999,11.418 C10.054,11.418 9.284,12.164 9.284,13.080 L9.284,18.446 C9.284,18.462 9.283,18.476 9.282,18.489 C9.259,18.775 9.013,19.000 8.713,19.000 L2.997,19.000 C2.681,19.000 2.425,18.752 2.425,18.446 L2.425,9.077 C2.425,8.771 2.681,8.523 2.997,8.523 Z" class="cls-1"/>
</svg>
