<svg xmlns="http://www.w3.org/2000/svg" xmlns:xlink="http://www.w3.org/1999/xlink" preserveAspectRatio="xMidYMid" width="19" height="12" viewBox="0 0 19 12">
  <defs>
    <style>
      .cls-1 {
        fill: #5d4a7f;
        fill-rule: evenodd;
      }
    </style>
  </defs>
  <path d="M19.000,1.520 C19.000,1.129 18.839,0.776 18.584,0.506 C18.580,0.501 18.578,0.495 18.574,0.489 C18.570,0.484 18.564,0.483 18.559,0.478 C18.269,0.185 17.859,-0.000 17.403,-0.000 L1.597,-0.000 C1.141,-0.000 0.731,0.185 0.440,0.478 C0.436,0.483 0.429,0.484 0.425,0.489 C0.420,0.495 0.420,0.501 0.415,0.506 C0.160,0.776 -0.000,1.129 -0.000,1.520 L-0.000,10.480 C-0.000,10.880 0.167,11.242 0.433,11.514 C0.439,11.519 0.440,11.526 0.446,11.532 C0.448,11.534 0.450,11.534 0.452,11.536 C0.743,11.821 1.148,12.000 1.597,12.000 L17.403,12.000 C17.852,12.000 18.257,11.821 18.547,11.536 C18.549,11.534 18.552,11.533 18.554,11.532 C18.559,11.527 18.561,11.520 18.566,11.514 C18.833,11.243 19.000,10.880 19.000,10.480 L19.000,1.520 L19.000,1.520 ZM12.781,5.526 L18.256,1.152 C18.310,1.265 18.342,1.389 18.342,1.520 L18.342,10.480 C18.342,10.598 18.316,10.711 18.272,10.815 L12.781,5.526 ZM17.403,0.626 C17.541,0.626 17.671,0.657 17.789,0.708 L9.500,7.329 L1.210,0.708 C1.329,0.657 1.459,0.626 1.597,0.626 L17.403,0.626 ZM0.728,10.815 C0.684,10.711 0.658,10.598 0.658,10.479 L0.658,1.520 C0.658,1.389 0.690,1.265 0.744,1.152 L6.219,5.526 L0.728,10.815 ZM1.597,11.373 C1.445,11.373 1.303,11.335 1.176,11.274 L6.725,5.930 L9.289,7.978 C9.349,8.027 9.425,8.052 9.500,8.052 C9.575,8.052 9.650,8.027 9.711,7.978 L12.275,5.930 L17.824,11.274 C17.696,11.335 17.555,11.373 17.403,11.373 L1.597,11.373 Z" class="cls-1"/>
</svg>
