<svg xmlns="http://www.w3.org/2000/svg" xmlns:xlink="http://www.w3.org/1999/xlink" preserveAspectRatio="xMidYMid" width="19" height="22" viewBox="0 0 19 22">
  <defs>
    <style>
      .cls-1 {
        fill: #5a477d;
        fill-rule: evenodd;
      }
    </style>
  </defs>
  <path d="M18.776,19.535 C18.730,19.654 18.642,19.754 18.536,19.822 C18.397,19.909 15.071,22.000 9.507,22.000 C3.942,22.000 0.617,19.913 0.478,19.822 C0.367,19.754 0.284,19.654 0.237,19.535 C-0.008,18.925 -0.003,17.708 0.001,17.471 C0.001,17.467 0.001,17.462 0.001,17.458 C0.006,17.421 0.006,17.385 0.006,17.344 C0.034,16.446 0.094,14.337 2.101,13.658 C2.115,13.654 2.129,13.649 2.148,13.645 C4.243,13.121 5.968,11.936 5.987,11.922 C6.269,11.726 6.658,11.795 6.856,12.073 C7.055,12.351 6.986,12.733 6.704,12.929 C6.625,12.979 4.784,14.246 2.481,14.829 C1.403,15.207 1.283,16.342 1.250,17.380 C1.250,17.421 1.246,17.458 1.246,17.494 C1.236,17.904 1.269,18.537 1.343,18.902 C2.097,19.321 5.052,20.774 9.502,20.774 C13.971,20.774 16.908,19.326 17.657,18.906 C17.731,18.542 17.759,17.909 17.754,17.499 C17.750,17.462 17.750,17.426 17.750,17.385 C17.717,16.346 17.597,15.212 16.519,14.834 C14.216,14.250 12.375,12.988 12.296,12.934 C12.014,12.738 11.945,12.355 12.143,12.077 C12.342,11.799 12.731,11.731 13.013,11.927 C13.032,11.941 14.766,13.125 16.852,13.649 C16.866,13.654 16.885,13.658 16.898,13.663 C18.906,14.337 18.966,16.446 18.994,17.348 C18.994,17.389 18.998,17.426 18.998,17.462 C18.998,17.467 18.998,17.471 18.998,17.476 C19.003,17.713 19.008,18.929 18.776,19.535 ZM9.567,11.854 C9.553,11.854 9.535,11.854 9.521,11.854 C9.511,11.854 9.502,11.854 9.493,11.854 C9.465,11.854 9.442,11.854 9.419,11.854 C8.064,11.831 6.967,11.362 6.163,10.465 C4.382,8.487 4.678,5.098 4.710,4.774 C4.826,2.328 6.010,1.166 6.981,0.624 C7.948,0.082 8.956,-0.000 9.470,-0.000 L9.498,-0.000 C9.502,-0.000 9.511,-0.000 9.516,-0.000 L9.549,-0.000 C10.483,0.018 11.320,0.237 12.037,0.642 C12.999,1.184 14.165,2.346 14.280,4.774 C14.313,5.098 14.609,8.487 12.828,10.465 C12.019,11.362 10.922,11.831 9.567,11.854 ZM13.041,4.888 C13.036,4.879 13.036,4.865 13.036,4.852 C12.893,1.763 10.770,1.262 9.521,1.235 C9.507,1.235 9.493,1.235 9.484,1.235 L9.465,1.235 C8.457,1.235 6.102,1.585 5.950,4.852 C5.950,4.861 5.945,4.875 5.945,4.888 C5.941,4.916 5.626,8.027 7.092,9.649 C7.671,10.296 8.452,10.615 9.470,10.624 C9.479,10.624 9.484,10.624 9.493,10.624 C9.502,10.624 9.507,10.624 9.516,10.624 C10.538,10.615 11.315,10.296 11.898,9.649 C13.369,8.018 13.045,4.920 13.041,4.888 Z" class="cls-1"/>
</svg>
